<svg version="1.1" preserveAspectRatio="none" xmlns="http://www.w3.org/2000/svg" width="500" height="500" viewBox="0 0 500 500"><rect width="100%" height="100%" fill="#F5F5F5" fill-opacity="1"/><svg viewBox="135.7078 325.0331 364.186 334.0027" width="333" height="305.401358371821" x="83.5px" y="97.2993px" xmlns="http://www.w3.org/2000/svg" xmlns:xlink="http://www.w3.org/1999/xlink" preserveAspectRatio="none"><defs></defs><style>.companyName {fill:#F7BFB2;fill-opacity:1;}.icon1 {fill:#FDC8BC;fill-opacity:1;}.icon2 {fill:#D2BB7A;fill-opacity:1;}.icon3 {fill:#8F8F8F;fill-opacity:1;}.icon3-str {stroke:#8F8F8F;stroke-opacity:1;}.text {fill:#777777;fill-opacity:1;}</style><g opacity="1" transform="rotate(0 229.47 633.4358)">
<svg width="176.6616" height="25.6" x="229.47" y="633.4358" version="1.1" preserveAspectRatio="none" viewBox="4.32 -33.4 251.44 36.44">
  <g transform="matrix(1 0 0 1 0 0)" class="text"><path id="id-6izo4zJp6" d="M11.76-2.28C10.20-2.28 7.48-3.84 7.48-5.64C7.48-7.44 9.84-9.68 13.04-11.20C13.08-8.32 13.16-5.64 13.16-4.20C13.16-2.96 12.68-2.28 11.76-2.28ZM15.92-16.56C15.92-18.16 15.96-20.04 16-21.92C18.88-22.24 21.92-22.76 24.24-23.28L24.20-26.44C21.96-25.76 18.96-25.20 16.08-24.84C16.12-26.60 16.16-28.16 16.20-29.12C16.24-30.04 16.32-31.12 16.40-31.84L12.92-31.84C13.08-31.16 13.16-29.84 13.16-29.04C13.16-28.32 13.12-26.60 13.08-24.52C12-24.44 10.96-24.40 10.04-24.40C8.60-24.40 7.16-24.44 5-24.72L5.08-21.68C6.60-21.52 8.32-21.48 10.12-21.48C10.96-21.48 11.96-21.52 13.04-21.60C13-19.84 13-18 13-16.40L13-14.16C8.44-12.20 4.32-8.76 4.32-5.52C4.32-1.96 9.48 1.04 12.60 1.04C14.72 1.04 16.12-0.12 16.12-3.80C16.12-5.52 16.04-9 15.96-12.36C18.80-13.36 21.60-13.92 24.56-13.92C28.32-13.92 31.36-12.12 31.36-8.76C31.36-5.08 28.20-3.20 24.72-2.56C23.20-2.24 21.56-2.28 20.08-2.28L21.20 0.88C22.56 0.84 24.32 0.76 26.08 0.36C31.52-0.96 34.52-4 34.52-8.80C34.52-13.52 30.36-16.68 24.60-16.68C22-16.68 18.92-16.20 15.92-15.24ZM27.32-25.04C29.84-23.68 34.24-21 36.20-19.12L37.80-21.68C35.88-23.28 31.56-26 28.76-27.48Z M81.96-12.88L65.56-12.88L65.56-19.36L79.72-19.36L79.72-22.20L65.56-22.20L65.56-28.68C70.28-29.24 74.64-30 78.04-31.04L75.80-33.40C69.80-31.52 58.20-30.48 48.76-30.04C49.04-29.36 49.40-28.20 49.52-27.40C53.64-27.60 58.16-27.88 62.56-28.36L62.56-22.20L48.80-22.20L48.80-19.36L62.56-19.36L62.56-12.88L46.12-12.88L46.12-9.96L62.56-9.96L62.56-1.12C62.56-0.28 62.20 0 61.32 0C60.40 0.04 57.28 0.08 53.92-0.04C54.40 0.76 54.96 2.08 55.20 2.92C59.40 2.96 61.96 2.88 63.44 2.40C64.92 1.92 65.56 1.04 65.56-1.08L65.56-9.96L81.96-9.96Z M125.64-7.80L125.64-10.44L109.48-10.44L109.48-13L107.76-13C108.16-13.04 108.52-13.12 108.84-13.24C110.04-13.60 110.40-14.24 110.40-15.80L110.40-21.44L120.48-21.44C119.12-19.64 117.44-17.84 116.04-16.60L118.68-15.56C120.84-17.44 123.20-20.40 125.32-23.20L123.04-24.04L122.48-23.88L114.40-23.88L114.64-24.16C113.76-24.56 112.76-24.96 111.60-25.36C114.96-26.72 118.32-28.56 120.76-30.52L118.80-32.04L118.12-31.88L94.64-31.88L94.64-29.44L114.64-29.44C112.76-28.36 110.44-27.28 108.24-26.52C106.12-27.16 103.80-27.76 101.76-28.12L100.12-26.36C102.96-25.80 106.28-24.84 109.04-23.88L91.20-23.88L91.20-21.44L103.36-21.44C99.96-18.64 94.96-16.24 90.60-14.96C91.20-14.36 92.04-13.36 92.48-12.64C97.56-14.36 103.44-17.68 107.04-21.44L107.40-21.44L107.40-15.84C107.40-15.40 107.24-15.24 106.68-15.24C106.08-15.20 104.12-15.16 101.92-15.28C102.28-14.52 102.72-13.60 102.88-12.84C104.32-12.84 105.52-12.84 106.52-12.88L106.52-10.44L90.40-10.44L90.40-7.80L103.64-7.80C100.12-4.44 94.68-1.48 89.72-0.04C90.32 0.60 91.24 1.68 91.68 2.44C96.96 0.60 102.80-2.92 106.52-7.04L106.52 3.04L109.48 3.04L109.48-6.88C113.20-2.88 119.04 0.52 124.44 2.20C124.92 1.44 125.80 0.32 126.44-0.28C121.24-1.64 115.72-4.48 112.28-7.80Z M144.64-28.20C147.68-27.36 156.28-25.60 160.04-25.08L160.80-28.20C157.28-28.52 148.88-30.16 145.48-31.24ZM144.60-24.04L141.20-24.48C140.96-20.32 140-12 139.20-8.40L142.20-7.68C142.48-8.32 142.84-9 143.40-9.68C146.20-13 150.36-14.92 155.64-14.92C159.68-14.92 162.60-12.72 162.60-9.56C162.60-4.16 156.48-0.56 144-2.08L144.96 1.20C159.68 2.44 165.96-2.36 165.96-9.48C165.96-14.12 161.92-17.76 155.84-17.76C151.12-17.76 146.84-16.32 143.04-13C143.40-15.56 144.08-21.32 144.60-24.04Z M189.84-31.48C189.84-28.80 189.40-25.72 188.84-22.88C186.44-22.68 184.12-22.48 182.80-22.44C181.56-22.40 180.52-22.36 179.28-22.44L179.60-18.96C180.64-19.12 182.24-19.32 183.16-19.44C184.20-19.56 186.12-19.76 188.16-19.96C186.84-14.68 183.88-5.72 179.84-0.32L183.12 1C187.32-5.72 190-14.60 191.44-20.28C193.16-20.44 194.72-20.56 195.68-20.56C198.20-20.56 199.84-19.92 199.84-16.32C199.84-12 199.24-6.88 198-4.20C197.16-2.48 196-2.16 194.52-2.16C193.44-2.16 191.32-2.52 189.68-3.04L190.20 0.32C191.44 0.60 193.36 0.92 194.84 0.92C197.44 0.92 199.40 0.24 200.64-2.40C202.28-5.72 202.96-11.96 202.96-16.68C202.96-22.04 200.04-23.40 196.52-23.40C195.56-23.40 193.92-23.28 192.08-23.16C192.52-25.28 192.88-27.60 193.08-28.76C193.24-29.52 193.40-30.36 193.56-31.08ZM204.24-25.60C207.04-22.28 210.16-15.32 211.32-11.24L214.44-12.72C213.08-16.40 209.68-23.68 207.20-26.88Z M227.16-30.28C227.16-29.44 227-28.40 226.88-27.48C226.40-24.24 225.12-17.44 225.12-11.60C225.12-6.24 225.76-1.68 226.56 1.12L229.44 0.92L229.32-0.48C229.32-0.92 229.40-1.68 229.52-2.24C229.88-4.12 231.32-8.32 232.32-11.12L230.60-12.40C229.96-10.84 229.08-8.52 228.40-6.72C228.16-8.64 228.08-10.24 228.08-12.16C228.08-16.60 229.24-23.68 230-27.32C230.16-28.04 230.52-29.32 230.76-30ZM236.92-11.08C236.56-9.40 236.28-7.84 236.28-6.40C236.28-2.68 239.24-0.48 245.88-0.48C250-0.48 253.32-0.80 255.76-1.28L255.72-4.64C252.52-3.92 249.48-3.60 245.92-3.60C240.48-3.60 239.28-5.36 239.28-7.16C239.28-8.24 239.44-9.36 239.80-10.80ZM238.28-23.68C242.60-23.24 250.28-23.24 254.52-23.68L254.52-26.96C250.56-26.40 242.56-26.24 238.24-26.96Z"/></g>
</svg>
</g><g opacity="1" transform="rotate(0 135.7078 531.4358)">
<svg width="364.186" height="80" x="135.7078" y="531.4358" version="1.1" preserveAspectRatio="none" viewBox="4 -29.12 135.84 29.84">
  <g transform="matrix(1 0 0 1 0 0)" class="companyName"><path id="id-D6z1nYkh7" d="M12.24-29.12Q17.20-29.12 20-26.64Q22.80-24.16 22.80-19.76L22.80-19.76Q22.80-17.24 21.80-15.06Q20.80-12.88 18.58-11.50Q16.36-10.12 12.88-10.12L12.88-10.12L8.68-10.12L8.68 0L4 0L4-29.12L12.24-29.12ZM12.88-14.60Q14.80-14.60 15.98-15.42Q17.16-16.24 17.66-17.42Q18.16-18.60 18.16-19.68L18.16-19.68Q18.16-21.52 16.98-23.08Q15.80-24.64 13-24.64L13-24.64L8.68-24.64L8.68-14.60L12.88-14.60Z M27.52-16.92L32-16.92L32 0L27.52 0L27.52-16.92ZM27.32-22.96Q27.32-23.96 28.12-24.66Q28.92-25.36 29.92-25.36L29.92-25.36Q30.88-25.36 31.66-24.66Q32.44-23.96 32.44-22.96L32.44-22.96Q32.44-21.96 31.66-21.28Q30.88-20.60 29.92-20.60L29.92-20.60Q28.92-20.60 28.12-21.28Q27.32-21.96 27.32-22.96L27.32-22.96Z M52.16-1.56Q51.04-0.64 49.42-0.10Q47.80 0.44 46.16 0.44L46.16 0.44Q43.36 0.44 41.22-0.64Q39.08-1.72 37.92-3.74Q36.76-5.76 36.76-8.48L36.76-8.48Q36.76-11.16 38-13.18Q39.24-15.20 41.30-16.28Q43.36-17.36 45.72-17.36L45.72-17.36Q49.72-17.36 52.32-15.20L52.32-15.20L50.08-12.28Q49.32-12.88 48.30-13.30Q47.28-13.72 46.12-13.72L46.12-13.72Q44.08-13.72 42.66-12.22Q41.24-10.72 41.24-8.48L41.24-8.48Q41.24-6.24 42.74-4.74Q44.24-3.24 46.56-3.24L46.56-3.24Q48.56-3.24 49.92-4.36L49.92-4.36L52.16-1.56Z M55.60-29.12L75.08-29.12L75.08-24.64L67.56-24.64L67.56 0L62.92 0L62.92-24.64L55.60-24.64L55.60-29.12Z M89.48-16.92L93.96-16.92L93.96 0L89.92 0L89.64-3.04Q88.76-1.32 87.04-0.30Q85.32 0.72 83.12 0.72L83.12 0.72Q80.80 0.72 79.26-0.70Q77.72-2.12 77.68-4.36L77.68-4.36L77.68-16.92L82.16-16.92L82.16-5.96Q82.28-3.16 84.92-3.12L84.92-3.12Q86.88-3.12 88.18-4.92Q89.48-6.72 89.48-9.44L89.48-9.44L89.48-16.92Z M111.20-17.64Q113.56-17.64 115.14-16.22Q116.72-14.80 116.76-12.56L116.76-12.56L116.76 0L112.28 0L112.28-10.96Q112.20-12.28 111.50-13.04Q110.80-13.80 109.40-13.84L109.40-13.84Q107.32-13.84 105.98-12.06Q104.64-10.28 104.64-7.52L104.64-7.52L104.64 0L100.16 0L100.16-16.92L104.20-16.92L104.52-13.92Q105.44-15.68 107.18-16.66Q108.92-17.64 111.20-17.64L111.20-17.64Z M131.08-3.40Q132.96-3.40 134.88-4.72L134.88-4.72L136.92-1.40Q135.56-0.56 134-0.06Q132.44 0.44 131 0.44L131 0.44Q128.08 0.44 125.94-0.72Q123.80-1.88 122.66-3.92Q121.52-5.96 121.52-8.60L121.52-8.60Q121.52-11.08 122.80-13.16Q124.08-15.24 126.28-16.46Q128.48-17.68 131.08-17.68L131.08-17.68Q134.52-17.68 136.80-15.66Q139.08-13.64 139.84-9.96L139.84-9.96L126.80-5.56Q127.48-4.52 128.60-3.96Q129.72-3.40 131.08-3.40L131.08-3.40ZM130.72-14.16Q128.60-14.16 127.26-12.68Q125.92-11.20 125.92-8.84L125.92-8.84Q125.92-8.40 125.96-8.16L125.96-8.16L134.84-11.32Q134.32-12.56 133.32-13.36Q132.32-14.16 130.72-14.16L130.72-14.16Z"/></g>
</svg>
</g><g opacity="1" transform="rotate(0 226.7543 325.0331)">
<svg width="182.093" height="176.4027" x="226.7543" y="325.0331" version="1.1" preserveAspectRatio="none" viewBox="20 22.5 160 155">
  <g transform="matrix(1 0 0 1 0 0)"><g><path d="M91.9 177.5L20 136.1V74.6L91.9 116v61.5z" data-color="1" class="icon1"></path><path d="M91.9 177.5V116L180 65.1V126l-88.1 50.9" data-color="2" class="icon2"></path><path d="M20 74.6l89.6-52.1L180 65.1 91.9 116 20 74.6z" data-color="1" class="icon1"></path><path d="M44.4 75.3l44.8 26.4 66-39.4-44-25.6-66.8 38.6z" data-color="3" class="icon3"></path><path d="M111.2 36.7v51.9l44-26.3-44-25.6z" data-color="2" class="icon2"></path></g></g>
</svg>
</g></svg></svg>