<?xml version="1.0"?>
<svg viewBox="0 0 500 500" xmlns="http://www.w3.org/2000/svg" xmlns:svg="http://www.w3.org/2000/svg" preserveAspectRatio="none" version="1.1">
 <g class="layer">
  <title>Layer 1</title>
  <g id="svg_3" transform="matrix(1 0 0 1 0 0)">
   <svg height="296.31" id="svg_1" preserveAspectRatio="none" viewBox="212.5479 263.7357 398.434 354.5319" width="333" x="91" xmlns="http://www.w3.org/2000/svg" xmlns:xlink="http://www.w3.org/1999/xlink" y="94">
    <style>.companyName {fill:#313131;fill-opacity:1;}.icon1 {fill:#313131;fill-opacity:1;}.icon2 {fill:#C2EF7E;fill-opacity:1;}.icon3 {fill:#6B7D3B;fill-opacity:1;}.icon3-str {stroke:#6B7D3B;stroke-opacity:1;}.text {fill:#313131;fill-opacity:1;}</style>
    <g id="svg_30" transform="rotate(0 332.118 594.2676)">
     <svg height="24" id="svg_34" preserveAspectRatio="none" version="1.1" viewBox="3.5938 -33.6328 244.4609 36.836000000000006" width="159.29" x="332.12" y="594.27">
      <g class="text" id="svg_35" transform="matrix(1 0 0 1 0 0)">
       <path d="m13.98,-17.58l0,-7.11l-8.28,0q-2.03,0 -2.03,-1.64l0,0q0,-1.68 2.03,-1.68l0,0l8.28,0l0,-2.65q0,-2.11 1.72,-2.11q1.72,0 1.72,2.11l0,0l0,2.65l8.36,0q1.99,0 1.99,1.68l0,0q0,1.64 -1.99,1.64l0,0l-8.36,0l0,6.37q2.5,-0.47 4.73,-0.47l0,0q6.05,0 9.78,2.64q3.73,2.63 3.73,7.71l0,0q0,4.18 -2.61,6.74q-2.62,2.56 -6.41,2.56l0,0q-6.56,0 -6.56,-2.5l0,0q0,-1.72 1.48,-1.72l0,0q0.71,0 2.01,0.37q1.31,0.37 2.6,0.37l0,0q2.62,0 4.24,-1.68q1.62,-1.68 1.62,-4.33l0,0q0,-7.15 -10.23,-7.15l0,0q-2,0 -4.38,0.51l0,0l0,11.29q-0.04,5.46 -5.51,5.46l0,0q-3.47,0 -5.89,-2.61q-2.43,-2.62 -2.43,-6.14l0,0q0,-3.39 2.84,-6.17q2.83,-2.77 7.55,-4.14l0,0zm0,12.66l0,-9.46q-7.18,2.86 -7.18,7.39l0,0q0,2.07 1.46,3.61q1.47,1.54 3.34,1.54l0,0q2.38,0 2.38,-3.08l0,0zm16.25,-25.9l0,0q0.98,0 2.31,1.41l0,0l2.46,2.42q2.11,2.11 2.11,3.24l0,0q0,1.6 -1.84,1.6l0,0q-0.97,0 -1.97,-1.29q-1,-1.29 -2.01,-2.38q-1.02,-1.09 -1.93,-1.99q-0.92,-0.9 -0.92,-1.49l0,0q0,-1.52 1.79,-1.52zm34.47,2.23l0,0l0,5.86l10.83,0q2.03,0 2.03,1.68l0,0q0,1.64 -2.03,1.64l0,0l-10.83,0l0,5.86l13.99,0q2.11,0 2.11,1.71q0,1.72 -2.11,1.72l0,0l-13.99,0l0,8.28q0.32,5.12 -4.8,4.81l0,0l-3.01,0q-2.19,0 -2.19,-1.88l0,0q0,-1.83 2.19,-1.83l0,0l2.5,0q1.72,-0.04 1.76,-1.8l0,0l0,-7.58l-15.08,0q-2.07,0 -2.07,-1.72q0,-1.71 2.07,-1.71l0,0l15.08,0l0,-5.86l-11.8,0q-1.99,0 -1.99,-1.68l0,0q0,-1.64 1.99,-1.64l0,0l11.8,0l0,-5.55l-1.56,0.08q-9.14,0.7 -11.25,0.7l0,0q-2.35,0 -2.35,-1.84l0,0q0,-0.7 0.63,-1.29l0,0q0.35,-0.35 3.01,-0.35q2.65,0 7.14,-0.33q4.5,-0.33 8.25,-0.74q3.75,-0.41 6.83,-1q3.09,-0.58 3.36,-0.58l0,0q2.11,0 2.11,1.99l0,0q0,0.98 -1.87,1.58q-1.88,0.61 -10.75,1.47zm41.7,22.93l0,0l0,6.99q0,1.87 -1.68,1.87l0,0q-1.64,0 -1.64,-1.87l0,0l0,-7.11q-3.63,3.12 -8.34,5.53q-4.71,2.4 -6.78,2.4l0,0q-1.56,0 -1.56,-1.64l0,0q0,-1.21 1.64,-1.68l0,0q7.66,-2.19 13.4,-6.45l0,0l-12.54,0q-1.83,0 -1.83,-1.48l0,0q0,-1.45 1.83,-1.45l0,0l14.18,0l0,-1.29q0,-0.89 0.7,-1.32l0,0l-2.89,0.07q-1.6,0 -1.6,-1.44q0,-1.45 1.6,-1.45l0,0l1.68,0q1.53,-0.04 1.61,-1.56l0,0l0,-3.01q-3.75,2.93 -8.85,5.16q-5.1,2.23 -6.94,2.23l0,0q-1.44,0 -1.44,-1.53l0,0q0,-1.21 1.8,-1.62q1.79,-0.41 3.86,-1.11q2.07,-0.71 5.18,-2.13q3.1,-1.43 3.73,-2.09l0,0l-13.2,0q-1.53,0 -1.53,-1.37q0,-1.37 1.53,-1.37l0,0l18.63,0l-4.96,-1.36l-3.21,-0.71q-1.44,-0.31 -1.44,-1.05l0,0q0,-1.25 1.33,-1.25l0,0l2.89,0.59l3.36,0.86l0.31,0.07q3.79,-1.13 6.17,-2.3l0,0l-20,0q-1.56,0 -1.56,-1.37q0,-1.37 1.56,-1.37l0,0l24.45,0q2.47,0 2.47,1.49l0,0q0,1.09 -10,4.49l0,0q1.05,0.43 1.05,0.9l0,0q0,0.59 -0.55,1.01l0,0l11.02,0q2.66,0 2.66,1.76l0,0q0,0.82 -4.22,3.97q-4.22,3.14 -5.32,3.14l0,0q-1.64,0 -1.64,-1.4l0,0q0,-0.82 1.84,-1.84l0,0q3.59,-2.15 3.59,-2.46l0,0q0,-0.39 -0.5,-0.39l0,0l-8.95,0l0,4.57q0.23,2.69 -2.3,3.63l0,0q1.44,0.24 1.4,1.56l0,0l0,1.29l14.34,0q1.79,0 1.79,1.49l0,0q0,1.44 -1.79,1.44l0,0l-12.81,0q5.03,4.26 13.51,6.14l0,0q1.8,0.39 1.8,1.68l0,0q0,1.75 -1.68,1.75l0,0q-1.6,0 -6.68,-2.18q-5.08,-2.19 -8.48,-5.43zm32.68,-19.34l-0.75,10.16q6.72,-3.99 12.89,-3.99l0,0q11.41,0 11.41,8.87l0,0q0,5.7 -5.06,8.57q-5.06,2.87 -15.21,2.87l0,0q-2.66,0 -2.66,-1.99l0,0q0,-1.72 2.07,-1.72l0,0l3.01,0.04q6.44,0 10.15,-2.09q3.72,-2.09 3.72,-5.72l0,0q0,-5.47 -7.15,-5.47l0,0q-7.07,0 -13.56,5.31l0,0q-0.9,0.75 -1.64,0.75l0,0q-1.95,0 -1.83,-1.68l0,0l0.86,-13.25q0.15,-2.14 1.83,-2.14l0,0q2.03,0 1.92,1.48l0,0zm3.59,-3.87l0,0l-1.99,0q-2.35,0 -2.35,-1.6l0,0q0,-1.91 2.82,-1.91l0,0q7.38,0 13,1.17l0,0q2.89,0.58 2.89,2.07l0,0q0,1.87 -1.95,1.87l0,0l-1.25,-0.15q-5.47,-1.17 -11.17,-1.45zm44.51,6.76l-3.6,0.16q-1.6,6.4 -3.69,12.15q-2.09,5.74 -3.57,8.47l0,0q-0.74,1.37 -1.8,1.37l0,0q-1.72,0 -1.72,-1.72l0,0q0,-0.59 0.67,-1.8l0,0q1.56,-2.73 3.57,-8.26q2.01,-5.53 3.07,-9.86l0,0l-6.37,0.94q-1.6,0 -1.6,-1.68l0,0q0,-1.53 2.42,-1.84l0,0l6.37,-0.82l0.04,-0.12l1.21,-6.01q0.35,-1.76 1.72,-1.76l0,0q1.64,0 1.64,1.56l0,0q0,1.02 -1.14,6.02l0,0l2.9,-0.12q4.8,0 6.56,2.3q1.76,2.31 1.76,7.43l0,0q0,8.04 -2.07,12.71q-2.07,4.67 -5.9,4.67l0,0q-2.39,0 -4.61,-1.56q-2.23,-1.57 -2.23,-2.74l0,0q0,-1.79 1.68,-1.79l0,0q0.63,0 1.68,0.89l0,0q1.84,1.49 3.32,1.49l0,0q1.45,0 2.52,-1.8q1.07,-1.8 1.6,-4.82q0.53,-3.03 0.53,-7.44l0,0q0,-3.87 -1.33,-5l0,0q-1.13,-1.02 -3.63,-1.02l0,0zm11.95,-5.31l0,0q1.84,0 4.96,7.52q3.13,7.52 3.13,10.37l0,0q0,2.03 -1.96,2.03l0,0q-1.36,0 -1.83,-2.11l0,0q-1.84,-7.97 -4.22,-12.34l0,0q-1.8,-3.32 -1.8,-3.95l0,0q0,-1.52 1.72,-1.52zm22.17,-3.95l0,0q1.68,0 1.68,1.57l0,0q0,0.78 -0.32,2.07l0,0q-1.25,5.07 -1.25,13.35l0,0q0,6.45 0.98,12.78l0,0l0.08,0.9q0,1.75 -1.8,1.75l0,0q-1.44,0 -1.91,-1.56l0,0q-0.31,-1.13 -0.72,-5.56q-0.41,-4.44 -0.41,-7.41l0,0q0,-8.28 1.4,-15.15l0,0q0.55,-2.74 2.27,-2.74zm23.67,7.11l-3.48,-0.15q-6.09,0 -11.09,1.13l0,0l-1.06,0.15q-1.4,0 -1.4,-1.52l0,0q0,-1.72 2.85,-2.23l0,0q6.6,-1.17 12.34,-1.17l0,0q3.99,0 3.99,1.88l0,0q0,1.91 -2.15,1.91l0,0zm-15.47,10.12l0,0q1.56,0 1.56,1.41l0,0l-0.19,1.01q-0.39,1.13 -0.39,2.23l0,0q0,4.37 10.15,4.37l0,0l2.54,-0.04l3.13,-0.23q1.75,0 1.75,1.72l0,0q0,1.33 -1.3,1.76q-1.31,0.43 -5.06,0.43l0,0q-5.51,0 -8.52,-0.69q-3.01,-0.68 -4.61,-2.62q-1.6,-1.93 -1.6,-4.94l0,0q0,-4.41 2.54,-4.41z" id="svg_36"/>
      </g>
     </svg>
    </g>
    <g id="svg_26" transform="rotate(0 212.5479 489.2676)">
     <svg height="80" id="svg_37" preserveAspectRatio="none" version="1.1" viewBox="1.8 -32.2 162.56 32.64" width="398.43" x="212.55" y="489.27">
      <g class="companyName" id="svg_38" transform="matrix(1 0 0 1 0 0)">
       <path d="m26.32,-23.08l0,0q0,2.12 -0.68,3.8q-0.68,1.68 -2.14,2.84q-1.46,1.16 -3.8,1.8q-2.34,0.64 -5.7,0.64l0,0l-3.6,0l0,7.72q0,1.48 0.18,2.42q0.18,0.94 0.76,1.46q0.58,0.52 1.68,0.7q1.1,0.18 2.9,0.18l0,0l0,1.52l-14.12,0l0,-1.52q1.4,-0.04 2.26,-0.24q0.86,-0.2 1.34,-0.68q0.48,-0.48 0.64,-1.36q0.16,-0.88 0.16,-2.28l0,0l0,-18.64q0,-1.4 -0.14,-2.26q-0.14,-0.86 -0.56,-1.36q-0.42,-0.5 -1.22,-0.68q-0.8,-0.18 -2.08,-0.26l0,0l0,-1.52l12.56,0q5.52,0 8.54,2.04q3.02,2.04 3.02,5.68zm-15.92,-5.16l0,12.24l2.84,0q4,0 5.94,-1.54q1.94,-1.54 1.94,-5.06l0,0q0,-3.4 -1.54,-4.86q-1.54,-1.46 -4.82,-1.46l0,0l-3.68,0q-0.68,0 -0.68,0.68l0,0zm26.2,6.64l0,15.24q0,1.56 0.14,2.5q0.14,0.94 0.54,1.48q0.4,0.54 1.12,0.74q0.72,0.2 1.92,0.24l0,0l0,1.4l-11.48,0l0,-1.4q1.2,-0.04 1.96,-0.26q0.76,-0.22 1.18,-0.72q0.42,-0.5 0.56,-1.4q0.14,-0.9 0.14,-2.3l0,0l0,-5.12q0,-2.32 -0.06,-3.82q-0.06,-1.5 -0.22,-2.06l0,0q-0.2,-0.92 -0.92,-1.26q-0.72,-0.34 -2.72,-0.34l0,0l0,-1.4l7.84,-1.52zm-4.6,-8.12l0,0q0,-1.04 0.72,-1.76q0.72,-0.72 1.76,-0.72l0,0q1.04,0 1.76,0.72q0.72,0.72 0.72,1.76l0,0q0,1.04 -0.72,1.76q-0.72,0.72 -1.76,0.72l0,0q-1.04,0 -1.76,-0.72q-0.72,-0.72 -0.72,-1.76zm28.16,25.24l1.2,1.16q-1.44,1.76 -3.72,2.74q-2.28,0.98 -4.92,0.98l0,0q-2.12,0 -3.9,-0.78q-1.78,-0.78 -3.06,-2.2q-1.28,-1.42 -1.98,-3.42q-0.7,-2 -0.7,-4.44l0,0q0,-2.56 0.8,-4.62q0.8,-2.06 2.26,-3.52q1.46,-1.46 3.52,-2.24q2.06,-0.78 4.54,-0.78l0,0q1.56,0 2.84,0.26q1.28,0.26 2.22,0.72q0.94,0.46 1.46,1.12q0.52,0.66 0.52,1.42l0,0q0,0.8 -0.52,1.24q-0.52,0.44 -1.44,0.44l0,0q-0.72,0 -1.2,-0.3q-0.48,-0.3 -1.24,-1.34l0,0q-0.8,-0.92 -1.54,-1.3q-0.74,-0.38 -1.9,-0.38l0,0q-2.84,0 -4.3,2.2q-1.46,2.2 -1.46,6.48l0,0q0,4.6 1.62,6.98q1.62,2.38 4.74,2.38l0,0q1.68,0 3.16,-0.66q1.48,-0.66 3,-2.14l0,0zm30.04,-26.32l0.4,7.64l-1.64,0q-0.12,-1.72 -0.56,-2.88q-0.44,-1.16 -1.26,-1.82q-0.82,-0.66 -2.06,-0.94q-1.24,-0.28 -2.96,-0.28l0,0q-1.48,0 -2.38,0.06q-0.9,0.06 -1.38,0.22q-0.48,0.16 -0.62,0.38q-0.14,0.22 -0.14,0.58l0,0l0,21.4q0,1.28 0.18,2.2q0.18,0.92 0.72,1.5q0.54,0.58 1.56,0.88q1.02,0.3 2.7,0.34l0,0l0,1.52l-15.12,0l0,-1.52q1.68,-0.04 2.72,-0.34q1.04,-0.3 1.58,-0.88q0.54,-0.58 0.72,-1.5q0.18,-0.92 0.18,-2.2l0,0l0,-21.4q0,-0.36 -0.14,-0.58q-0.14,-0.22 -0.56,-0.38q-0.42,-0.16 -1.18,-0.22q-0.76,-0.06 -2.04,-0.06l0,0q-1.56,0 -2.9,0.12q-1.34,0.12 -2.32,0.7q-0.98,0.58 -1.58,1.78q-0.6,1.2 -0.64,3.32l0,0l-1.48,0l0,-7.64l30.2,0zm17.28,19.92l0,-3.92q0,-1.64 -0.08,-2.58q-0.08,-0.94 -0.42,-1.44q-0.34,-0.5 -1,-0.68q-0.66,-0.18 -1.82,-0.3l0,0l0,-1.4l7.24,0l0,12.28q0,2.28 0.06,3.72q0.06,1.44 0.18,2.16l0,0q0.08,0.52 0.26,0.82q0.18,0.3 0.54,0.48q0.36,0.18 0.94,0.24q0.58,0.06 1.5,0.06l0,0l0,1.4l-6.6,0.48l-0.44,-4.8l-0.16,0q-1.52,2.48 -3.5,3.62q-1.98,1.14 -4.14,1.14l0,0q-1.68,0 -3.26,-0.64q-1.58,-0.64 -2.38,-1.72l0,0q-0.68,-0.88 -0.98,-2.44q-0.3,-1.56 -0.3,-4.04l0,0l0,-6.36q0,-1.64 -0.08,-2.58q-0.08,-0.94 -0.42,-1.44q-0.34,-0.5 -1,-0.68q-0.66,-0.18 -1.82,-0.3l0,0l0,-1.4l7.24,0l0,10.92q0,4.36 1.02,6.32q1.02,1.96 3.26,1.96l0,0q3.52,0 5.48,-4.6l0,0q0.2,-0.48 0.32,-0.88q0.12,-0.4 0.2,-0.88q0.08,-0.48 0.12,-1.08q0.04,-0.6 0.04,-1.44l0,0zm16.92,-0.76l0,5.36q0,1.64 0.08,2.58q0.08,0.94 0.42,1.44q0.34,0.5 1,0.66q0.66,0.16 1.82,0.24l0,0l0,1.36l-10.48,0l0,-1.36q1.12,-0.08 1.78,-0.24q0.66,-0.16 1.02,-0.64q0.36,-0.48 0.46,-1.36q0.1,-0.88 0.1,-2.4l0,0l0,-5.32q0,-4.76 -0.24,-5.8l0,0q-0.12,-0.52 -0.3,-0.86q-0.18,-0.34 -0.54,-0.52q-0.36,-0.18 -0.92,-0.24q-0.56,-0.06 -1.44,-0.06l0,0l0,-1.28l6.4,-1.52l0.48,3.96l0.16,0q1.52,-1.88 3.56,-2.92q2.04,-1.04 4.44,-1.04l0,0q1.84,0 3.36,0.6q1.52,0.6 2.32,1.64l0,0q0.68,0.92 0.96,2.38q0.28,1.46 0.28,4.02l0,0l0,6.68q0,1.64 0.1,2.58q0.1,0.94 0.42,1.44q0.32,0.5 0.98,0.66q0.66,0.16 1.74,0.24l0,0l0,1.36l-10.36,0l0,-1.36q1.12,-0.04 1.78,-0.22q0.66,-0.18 1,-0.66q0.34,-0.48 0.44,-1.38q0.1,-0.9 0.1,-2.38l0,0l0,-5.28q0,-2.28 -0.24,-3.84q-0.24,-1.56 -0.78,-2.52q-0.54,-0.96 -1.42,-1.38q-0.88,-0.42 -2.12,-0.42l0,0q-1.8,0 -3.3,0.94q-1.5,0.94 -2.34,2.58l0,0q-0.2,0.4 -0.34,0.76q-0.14,0.36 -0.22,0.84q-0.08,0.48 -0.12,1.1q-0.04,0.62 -0.04,1.58l0,0zm38.56,6.8l1.24,1.12q-3.4,4.12 -8.44,4.12l0,0q-2.36,0 -4.28,-0.78q-1.92,-0.78 -3.3,-2.2q-1.38,-1.42 -2.14,-3.4q-0.76,-1.98 -0.76,-4.38l0,0q0,-2.44 0.8,-4.52q0.8,-2.08 2.26,-3.56q1.46,-1.48 3.48,-2.32q2.02,-0.84 4.42,-0.84l0,0q3.88,0 6,2.1q2.12,2.1 2.12,6.02l0,0q0,0.56 -0.22,0.68q-0.22,0.12 -1.02,0.12l0,0l-13.16,0q-0.08,0.32 -0.12,0.78q-0.04,0.46 -0.04,1.02l0,0q0,2.08 0.5,3.78q0.5,1.7 1.44,2.9q0.94,1.2 2.24,1.86q1.3,0.66 2.9,0.66l0,0q1.68,0 3.12,-0.74q1.44,-0.74 2.96,-2.42l0,0zm-12.72,-9.68l7.36,0q0.8,0 1.28,-0.04q0.48,-0.04 0.72,-0.16q0.24,-0.12 0.32,-0.34q0.08,-0.22 0.08,-0.58l0,0q0,-1.84 -1.18,-2.94q-1.18,-1.1 -3.22,-1.1l0,0q-4.32,0 -5.36,5.16l0,0z" id="svg_39"/>
      </g>
     </svg>
    </g>
    <g id="svg_2" transform="rotate(0 332.0781 263.7357)">
     <svg height="185.53" id="svg_40" preserveAspectRatio="none" version="1.1" viewBox="35.76499557495117 32.599998474121094 119.92799377441406 139.61199951171875" width="159.37" x="332.08" y="263.74">
      <g id="svg_41" transform="matrix(1 0 0 1 0 0)">
       <g id="svg_42">
        <path class="icon1" d="m35.77,69.68l0,68.66l60.42,33.87l0,-22.89l-40.28,-22.88l-0.46,-44.86l-19.68,-11.9z" data-color="1" id="svg_49"/>
        <path class="icon2" d="m115.87,45.88l-19.68,-13.28l-60.42,37.08l19.68,11.9l60.42,-35.71l0,0.01z" data-color="2" id="svg_48"/>
        <path class="icon3" d="m96.19,149.32l59.5,-35.24l0,24.26l-59.5,33.87l0,-22.89z" data-color="3" id="svg_47"/>
        <path class="icon1" d="m115.87,57.09l30.67,18.08l-40.28,56.76l-30.44,-17.85l40.05,-56.99z" data-color="1" id="svg_46"/>
        <path class="icon3" d="m146.54,108.13l-40.28,23.8l40.28,-56.76l0,32.96z" data-color="3" id="svg_45"/>
        <path class="icon2" d="m55.91,126.44l19.91,-12.36l30.44,17.85l40.28,-23.8l9.15,5.95l-59.5,35.25l-40.28,-22.89z" data-color="2" id="svg_44"/>
        <path class="icon3" d="m115.87,45.88l0,11.21l-40.05,56.99l-19.91,12.36l-0.46,-44.86l60.42,-35.7z" data-color="3" id="svg_43"/>
       </g>
      </g>
     </svg>
    </g>
   </svg>
  </g>
 </g>
</svg>