<?xml version="1.0"?>
<svg width="500" height="500" xmlns="http://www.w3.org/2000/svg" xmlns:svg="http://www.w3.org/2000/svg" preserveAspectRatio="none" version="1.1">
 <g class="layer">
  <title>Layer 1</title>
  <rect fill="#ffffff" height="445" id="svg_43" opacity="0.8" rx="131" ry="131" stroke="#7f7272" stroke-dasharray="5,5" width="444" x="31.5" y="19"/>
  <g id="svg_23">
   <svg fill="#ffaaaa" height="305.4" id="svg_24" preserveAspectRatio="none" stroke="#7f7272" viewBox="135.7078 325.0331 364.186 334.0027" width="333" x="83.5px" xmlns="http://www.w3.org/2000/svg" xmlns:xlink="http://www.w3.org/1999/xlink" y="97.3px">

    <style fill="#ffaaaa" stroke="#7f7272">.companyName {fill:#F7BFB2;fill-opacity:1;}.icon1 {fill:#FDC8BC;fill-opacity:1;}.icon2 {fill:#D2BB7A;fill-opacity:1;}.icon3 {fill:#8F8F8F;fill-opacity:1;}.icon3-str {stroke:#8F8F8F;stroke-opacity:1;}.text {fill:#777777;fill-opacity:1;}</style>
    <g id="svg_25" transform="rotate(0 229.47 633.4358)">
     <svg fill="#ffaaaa" height="25.6" id="svg_26" preserveAspectRatio="none" stroke="#7f7272" version="1.1" viewBox="4.32 -33.4 251.44 36.44" width="176.66" x="229.47" y="633.44">
      <g class="text" id="svg_27" transform="matrix(1 0 0 1 0 0)">
       <path d="m11.76,-2.28c-1.56,0 -4.28,-1.56 -4.28,-3.36c0,-1.8 2.36,-4.04 5.56,-5.56c0.04,2.88 0.12,5.56 0.12,7c0,1.24 -0.48,1.92 -1.4,1.92zm4.16,-14.28c0,-1.6 0.04,-3.48 0.08,-5.36c2.88,-0.32 5.92,-0.84 8.24,-1.36l-0.04,-3.16c-2.24,0.68 -5.24,1.24 -8.12,1.6c0.04,-1.76 0.08,-3.32 0.12,-4.28c0.04,-0.92 0.12,-2 0.2,-2.72l-3.48,0c0.16,0.68 0.24,2 0.24,2.8c0,0.72 -0.04,2.44 -0.08,4.52c-1.08,0.08 -2.12,0.12 -3.04,0.12c-1.44,0 -2.88,-0.04 -5.04,-0.32l0.08,3.04c1.52,0.16 3.24,0.2 5.04,0.2c0.84,0 1.84,-0.04 2.92,-0.12c-0.04,1.76 -0.04,3.6 -0.04,5.2l0,2.24c-4.56,1.96 -8.68,5.4 -8.68,8.64c0,3.56 5.16,6.56 8.28,6.56c2.12,0 3.52,-1.16 3.52,-4.84c0,-1.72 -0.08,-5.2 -0.16,-8.56c2.84,-1 5.64,-1.56 8.6,-1.56c3.76,0 6.8,1.8 6.8,5.16c0,3.68 -3.16,5.56 -6.64,6.2c-1.52,0.32 -3.16,0.28 -4.64,0.28l1.12,3.16c1.36,-0.04 3.12,-0.12 4.88,-0.52c5.44,-1.32 8.44,-4.36 8.44,-9.16c0,-4.72 -4.16,-7.88 -9.92,-7.88c-2.6,0 -5.68,0.48 -8.68,1.44l0,-1.32zm11.4,-8.48c2.52,1.36 6.92,4.04 8.88,5.92l1.6,-2.56c-1.92,-1.6 -6.24,-4.32 -9.04,-5.8l-1.44,2.44zm54.64,12.16l-16.4,0l0,-6.48l14.16,0l0,-2.84l-14.16,0l0,-6.48c4.72,-0.56 9.08,-1.32 12.48,-2.36l-2.24,-2.36c-6,1.88 -17.6,2.92 -27.04,3.36c0.28,0.68 0.64,1.84 0.76,2.64c4.12,-0.2 8.64,-0.48 13.04,-0.96l0,6.16l-13.76,0l0,2.84l13.76,0l0,6.48l-16.44,0l0,2.92l16.44,0l0,8.84c0,0.84 -0.36,1.12 -1.24,1.12c-0.92,0.04 -4.04,0.08 -7.4,-0.04c0.48,0.8 1.04,2.12 1.28,2.96c4.2,0.04 6.76,-0.04 8.24,-0.52c1.48,-0.48 2.12,-1.36 2.12,-3.48l0,-8.88l16.4,0l0,-2.92zm43.68,5.08l0,-2.64l-16.16,0l0,-2.56l-1.72,0c0.4,-0.04 0.76,-0.12 1.08,-0.24c1.2,-0.36 1.56,-1 1.56,-2.56l0,-5.64l10.08,0c-1.36,1.8 -3.04,3.6 -4.44,4.84l2.64,1.04c2.16,-1.88 4.52,-4.84 6.64,-7.64l-2.28,-0.84l-0.56,0.16l-8.08,0l0.24,-0.28c-0.88,-0.4 -1.88,-0.8 -3.04,-1.2c3.36,-1.36 6.72,-3.2 9.16,-5.16l-1.96,-1.52l-0.68,0.16l-23.48,0l0,2.44l20,0c-1.88,1.08 -4.2,2.16 -6.4,2.92c-2.12,-0.64 -4.44,-1.24 -6.48,-1.6l-1.64,1.76c2.84,0.56 6.16,1.52 8.92,2.48l-17.84,0l0,2.44l12.16,0c-3.4,2.8 -8.4,5.2 -12.76,6.48c0.6,0.6 1.44,1.6 1.88,2.32c5.08,-1.72 10.96,-5.04 14.56,-8.8l0.36,0l0,5.6c0,0.44 -0.16,0.6 -0.72,0.6c-0.6,0.04 -2.56,0.08 -4.76,-0.04c0.36,0.76 0.8,1.68 0.96,2.44c1.44,0 2.64,0 3.64,-0.04l0,2.44l-16.12,0l0,2.64l13.24,0c-3.52,3.36 -8.96,6.32 -13.92,7.76c0.6,0.64 1.52,1.72 1.96,2.48c5.28,-1.84 11.12,-5.36 14.84,-9.48l0,10.08l2.96,0l0,-9.92c3.72,4 9.56,7.4 14.96,9.08c0.48,-0.76 1.36,-1.88 2,-2.48c-5.2,-1.36 -10.72,-4.2 -14.16,-7.52l13.36,0zm19,-20.4c3.04,0.84 11.64,2.6 15.4,3.12l0.76,-3.12c-3.52,-0.32 -11.92,-1.96 -15.32,-3.04l-0.84,3.04zm-0.04,4.16l-3.4,-0.44c-0.24,4.16 -1.2,12.48 -2,16.08l3,0.72c0.28,-0.64 0.64,-1.32 1.2,-2c2.8,-3.32 6.96,-5.24 12.24,-5.24c4.04,0 6.96,2.2 6.96,5.36c0,5.4 -6.12,9 -18.6,7.48l0.96,3.28c14.72,1.24 21,-3.56 21,-10.68c0,-4.64 -4.04,-8.28 -10.12,-8.28c-4.72,0 -9,1.44 -12.8,4.76c0.36,-2.56 1.04,-8.32 1.56,-11.04zm45.24,-7.44c0,2.68 -0.44,5.76 -1,8.6c-2.4,0.2 -4.72,0.4 -6.04,0.44c-1.24,0.04 -2.28,0.08 -3.52,0l0.32,3.48c1.04,-0.16 2.64,-0.36 3.56,-0.48c1.04,-0.12 2.96,-0.32 5,-0.52c-1.32,5.28 -4.28,14.24 -8.32,19.64l3.28,1.32c4.2,-6.72 6.88,-15.6 8.32,-21.28c1.72,-0.16 3.28,-0.28 4.24,-0.28c2.52,0 4.16,0.64 4.16,4.24c0,4.32 -0.6,9.44 -1.84,12.12c-0.84,1.72 -2,2.04 -3.48,2.04c-1.08,0 -3.2,-0.36 -4.84,-0.88l0.52,3.36c1.24,0.28 3.16,0.6 4.64,0.6c2.6,0 4.56,-0.68 5.8,-3.32c1.64,-3.32 2.32,-9.56 2.32,-14.28c0,-5.36 -2.92,-6.72 -6.44,-6.72c-0.96,0 -2.6,0.12 -4.44,0.24c0.44,-2.12 0.8,-4.44 1,-5.6c0.16,-0.76 0.32,-1.6 0.48,-2.32l-3.72,-0.4zm14.4,5.88c2.8,3.32 5.92,10.28 7.08,14.36l3.12,-1.48c-1.36,-3.68 -4.76,-10.96 -7.24,-14.16l-2.96,1.28zm22.92,-4.68c0,0.84 -0.16,1.88 -0.28,2.8c-0.48,3.24 -1.76,10.04 -1.76,15.88c0,5.36 0.64,9.92 1.44,12.72l2.88,-0.2l-0.12,-1.4c0,-0.44 0.08,-1.2 0.2,-1.76c0.36,-1.88 1.8,-6.08 2.8,-8.88l-1.72,-1.28c-0.64,1.56 -1.52,3.88 -2.2,5.68c-0.24,-1.92 -0.32,-3.52 -0.32,-5.44c0,-4.44 1.16,-11.52 1.92,-15.16c0.16,-0.72 0.52,-2 0.76,-2.68l-3.6,-0.28zm9.76,19.2c-0.36,1.68 -0.64,3.24 -0.64,4.68c0,3.72 2.96,5.92 9.6,5.92c4.12,0 7.44,-0.32 9.88,-0.8l-0.04,-3.36c-3.2,0.72 -6.24,1.04 -9.8,1.04c-5.44,0 -6.64,-1.76 -6.64,-3.56c0,-1.08 0.16,-2.2 0.52,-3.64l-2.88,-0.28zm1.36,-12.6c4.32,0.44 12,0.44 16.24,0l0,-3.28c-3.96,0.56 -11.96,0.72 -16.28,0l0.04,3.28z" fill="#ffaaaa" id="svg_28" stroke="#7f7272"/>
      </g>
     </svg>
    </g>
    <g id="svg_29" transform="rotate(0 135.7078 531.4358)">
     <svg fill="#ffaaaa" height="80" id="svg_30" preserveAspectRatio="none" stroke="#7f7272" version="1.1" viewBox="4 -29.12 135.84 29.84" width="364.19" x="135.71" y="531.44">
      <g class="companyName" id="svg_31" transform="matrix(1 0 0 1 0 0)">
       <path d="m12.24,-29.12q4.96,0 7.76,2.48q2.8,2.48 2.8,6.88l0,0q0,2.52 -1,4.7q-1,2.18 -3.22,3.56q-2.22,1.38 -5.7,1.38l0,0l-4.2,0l0,10.12l-4.68,0l0,-29.12l8.24,0zm0.64,14.52q1.92,0 3.1,-0.82q1.18,-0.82 1.68,-2q0.5,-1.18 0.5,-2.26l0,0q0,-1.84 -1.18,-3.4q-1.18,-1.56 -3.98,-1.56l0,0l-4.32,0l0,10.04l4.2,0zm14.64,-2.32l4.48,0l0,16.92l-4.48,0l0,-16.92zm-0.2,-6.04q0,-1 0.8,-1.7q0.8,-0.7 1.8,-0.7l0,0q0.96,0 1.74,0.7q0.78,0.7 0.78,1.7l0,0q0,1 -0.78,1.68q-0.78,0.68 -1.74,0.68l0,0q-1,0 -1.8,-0.68q-0.8,-0.68 -0.8,-1.68l0,0zm24.84,21.4q-1.12,0.92 -2.74,1.46q-1.62,0.54 -3.26,0.54l0,0q-2.8,0 -4.94,-1.08q-2.14,-1.08 -3.3,-3.1q-1.16,-2.02 -1.16,-4.74l0,0q0,-2.68 1.24,-4.7q1.24,-2.02 3.3,-3.1q2.06,-1.08 4.42,-1.08l0,0q4,0 6.6,2.16l0,0l-2.24,2.92q-0.76,-0.6 -1.78,-1.02q-1.02,-0.42 -2.18,-0.42l0,0q-2.04,0 -3.46,1.5q-1.42,1.5 -1.42,3.74l0,0q0,2.24 1.5,3.74q1.5,1.5 3.82,1.5l0,0q2,0 3.36,-1.12l0,0l2.24,2.8zm3.44,-27.56l19.48,0l0,4.48l-7.52,0l0,24.64l-4.64,0l0,-24.64l-7.32,0l0,-4.48zm33.88,12.2l4.48,0l0,16.92l-4.04,0l-0.28,-3.04q-0.88,1.72 -2.6,2.74q-1.72,1.02 -3.92,1.02l0,0q-2.32,0 -3.86,-1.42q-1.54,-1.42 -1.58,-3.66l0,0l0,-12.56l4.48,0l0,10.96q0.12,2.8 2.76,2.84l0,0q1.96,0 3.26,-1.8q1.3,-1.8 1.3,-4.52l0,0l0,-7.48zm21.72,-0.72q2.36,0 3.94,1.42q1.58,1.42 1.62,3.66l0,0l0,12.56l-4.48,0l0,-10.96q-0.08,-1.32 -0.78,-2.08q-0.7,-0.76 -2.1,-0.8l0,0q-2.08,0 -3.42,1.78q-1.34,1.78 -1.34,4.54l0,0l0,7.52l-4.48,0l0,-16.92l4.04,0l0.32,3q0.92,-1.76 2.66,-2.74q1.74,-0.98 4.02,-0.98l0,0zm19.88,14.24q1.88,0 3.8,-1.32l0,0l2.04,3.32q-1.36,0.84 -2.92,1.34q-1.56,0.5 -3,0.5l0,0q-2.92,0 -5.06,-1.16q-2.14,-1.16 -3.28,-3.2q-1.14,-2.04 -1.14,-4.68l0,0q0,-2.48 1.28,-4.56q1.28,-2.08 3.48,-3.3q2.2,-1.22 4.8,-1.22l0,0q3.44,0 5.72,2.02q2.28,2.02 3.04,5.7l0,0l-13.04,4.4q0.68,1.04 1.8,1.6q1.12,0.56 2.48,0.56l0,0zm-0.36,-10.76q-2.12,0 -3.46,1.48q-1.34,1.48 -1.34,3.84l0,0q0,0.44 0.04,0.68l0,0l8.88,-3.16q-0.52,-1.24 -1.52,-2.04q-1,-0.8 -2.6,-0.8l0,0z" fill="#ffaaaa" id="svg_32" stroke="#7f7272"/>
      </g>
     </svg>
    </g>
    <g id="svg_33" transform="rotate(0 226.7543 325.0331)">
     <svg fill="#ffaaaa" height="176.4" id="svg_34" preserveAspectRatio="none" stroke="#7f7272" version="1.1" viewBox="20 22.5 160 155" width="182.09" x="226.75" y="325.03">
      <g id="svg_35" transform="matrix(1 0 0 1 0 0)">
       <g id="svg_36">
        <path class="icon1" d="m91.9,177.5l-71.9,-41.4l0,-61.5l71.9,41.4l0,61.5z" data-color="1" fill="#ffaaaa" id="svg_37" stroke="#7f7272"/>
        <path class="icon2" d="m91.9,177.5l0,-61.5l88.1,-50.9l0,60.9l-88.1,50.9" data-color="2" fill="#ffaaaa" id="svg_38" stroke="#7f7272"/>
        <path class="icon1" d="m20,74.6l89.6,-52.1l70.4,42.6l-88.1,50.9l-71.9,-41.4z" data-color="1" fill="#ffaaaa" id="svg_39" stroke="#7f7272"/>
        <path class="icon3" d="m44.4,75.3l44.8,26.4l66,-39.4l-44,-25.6l-66.8,38.6z" data-color="3" fill="#ffaaaa" id="svg_40" stroke="#7f7272"/>
        <path class="icon2" d="m111.2,36.7l0,51.9l44,-26.3l-44,-25.6z" data-color="2" fill="#ffaaaa" id="svg_41" stroke="#7f7272"/>
       </g>
      </g>
     </svg>
    </g>
   </svg>
  </g>
 </g>
</svg>