<svg version="1.1" preserveAspectRatio="none" xmlns="http://www.w3.org/2000/svg" width="500" height="500" viewBox="0 0 500 500"><rect width="100%" height="100%" fill="#EFFFE0" fill-opacity="1"/><svg viewBox="212.5479 263.7357 398.434 354.5319" width="333" height="296.307851990543" x="83.5px" y="101.8461px" xmlns="http://www.w3.org/2000/svg" xmlns:xlink="http://www.w3.org/1999/xlink" preserveAspectRatio="none"><defs></defs><style>.companyName {fill:#313131;fill-opacity:1;}.icon1 {fill:#313131;fill-opacity:1;}.icon2 {fill:#C2EF7E;fill-opacity:1;}.icon3 {fill:#6B7D3B;fill-opacity:1;}.icon3-str {stroke:#6B7D3B;stroke-opacity:1;}.text {fill:#313131;fill-opacity:1;}</style><g opacity="1" transform="rotate(0 332.118 594.2676)">
<svg width="159.2939" height="24" x="332.118" y="594.2676" version="1.1" preserveAspectRatio="none" viewBox="3.5938 -33.6328 244.4609 36.836000000000006">
  <g transform="matrix(1 0 0 1 0 0)" class="text"><path id="id-6izo4zJp6" d="M13.98-17.58L13.98-24.69L5.70-24.69Q3.67-24.69 3.67-26.33L3.67-26.33Q3.67-28.01 5.70-28.01L5.70-28.01L13.98-28.01L13.98-30.66Q13.98-32.77 15.70-32.77Q17.42-32.77 17.42-30.66L17.42-30.66L17.42-28.01L25.78-28.01Q27.77-28.01 27.77-26.33L27.77-26.33Q27.77-24.69 25.78-24.69L25.78-24.69L17.42-24.69L17.42-18.32Q19.92-18.79 22.15-18.79L22.15-18.79Q28.20-18.79 31.93-16.15Q35.66-13.52 35.66-8.44L35.66-8.44Q35.66-4.26 33.05-1.70Q30.43 0.86 26.64 0.86L26.64 0.86Q20.08 0.86 20.08-1.64L20.08-1.64Q20.08-3.36 21.56-3.36L21.56-3.36Q22.27-3.36 23.57-2.99Q24.88-2.62 26.17-2.62L26.17-2.62Q28.79-2.62 30.41-4.30Q32.03-5.98 32.03-8.63L32.03-8.63Q32.03-15.78 21.80-15.78L21.80-15.78Q19.80-15.78 17.42-15.27L17.42-15.27L17.42-3.98Q17.38 1.48 11.91 1.48L11.91 1.48Q8.44 1.48 6.02-1.13Q3.59-3.75 3.59-7.27L3.59-7.27Q3.59-10.66 6.43-13.44Q9.26-16.21 13.98-17.58L13.98-17.58ZM13.98-4.92L13.98-14.38Q6.80-11.52 6.80-6.99L6.80-6.99Q6.80-4.92 8.26-3.38Q9.73-1.84 11.60-1.84L11.60-1.84Q13.98-1.84 13.98-4.92L13.98-4.92ZM30.23-30.82L30.23-30.82Q31.21-30.82 32.54-29.41L32.54-29.41L35-26.99Q37.11-24.88 37.11-23.75L37.11-23.75Q37.11-22.15 35.27-22.15L35.27-22.15Q34.30-22.15 33.30-23.44Q32.30-24.73 31.29-25.82Q30.27-26.91 29.36-27.81Q28.44-28.71 28.44-29.30L28.44-29.30Q28.44-30.82 30.23-30.82Z M64.70-28.59L64.70-28.59L64.70-22.73L75.53-22.73Q77.56-22.73 77.56-21.05L77.56-21.05Q77.56-19.41 75.53-19.41L75.53-19.41L64.70-19.41L64.70-13.55L78.69-13.55Q80.80-13.55 80.80-11.84Q80.80-10.12 78.69-10.12L78.69-10.12L64.70-10.12L64.70-1.84Q65.02 3.28 59.90 2.97L59.90 2.97L56.89 2.97Q54.70 2.97 54.70 1.09L54.70 1.09Q54.70-0.74 56.89-0.74L56.89-0.74L59.39-0.74Q61.11-0.78 61.15-2.54L61.15-2.54L61.15-10.12L46.07-10.12Q44.00-10.12 44.00-11.84Q44.00-13.55 46.07-13.55L46.07-13.55L61.15-13.55L61.15-19.41L49.35-19.41Q47.36-19.41 47.36-21.09L47.36-21.09Q47.36-22.73 49.35-22.73L49.35-22.73L61.15-22.73L61.15-28.28L59.59-28.20Q50.45-27.50 48.34-27.50L48.34-27.50Q45.99-27.50 45.99-29.34L45.99-29.34Q45.99-30.04 46.62-30.63L46.62-30.63Q46.97-30.98 49.63-30.98Q52.28-30.98 56.77-31.31Q61.27-31.64 65.02-32.05Q68.77-32.46 71.85-33.05Q74.94-33.63 75.21-33.63L75.21-33.63Q77.32-33.63 77.32-31.64L77.32-31.64Q77.32-30.66 75.45-30.06Q73.57-29.45 64.70-28.59Z M106.40-5.66L106.40-5.66L106.40 1.33Q106.40 3.20 104.72 3.20L104.72 3.20Q103.08 3.20 103.08 1.33L103.08 1.33L103.08-5.78Q99.45-2.66 94.74-0.25Q90.03 2.15 87.96 2.15L87.96 2.15Q86.40 2.15 86.40 0.51L86.40 0.51Q86.40-0.70 88.04-1.17L88.04-1.17Q95.70-3.36 101.44-7.62L101.44-7.62L88.90-7.62Q87.07-7.62 87.07-9.10L87.07-9.10Q87.07-10.55 88.90-10.55L88.90-10.55L103.08-10.55L103.08-11.84Q103.08-12.73 103.78-13.16L103.78-13.16L100.89-13.09Q99.29-13.09 99.29-14.53Q99.29-15.98 100.89-15.98L100.89-15.98L102.57-15.98Q104.10-16.02 104.18-17.54L104.18-17.54L104.18-20.55Q100.43-17.62 95.33-15.39Q90.23-13.16 88.39-13.16L88.39-13.16Q86.95-13.16 86.95-14.69L86.95-14.69Q86.95-15.90 88.75-16.31Q90.54-16.72 92.61-17.42Q94.68-18.13 97.79-19.55Q100.89-20.98 101.52-21.64L101.52-21.64L88.32-21.64Q86.79-21.64 86.79-23.01Q86.79-24.38 88.32-24.38L88.32-24.38L106.95-24.38L101.99-25.74L98.78-26.45Q97.34-26.76 97.34-27.50L97.34-27.50Q97.34-28.75 98.67-28.75L98.67-28.75L101.56-28.16L104.92-27.30L105.23-27.23Q109.02-28.36 111.40-29.53L111.40-29.53L91.40-29.53Q89.84-29.53 89.84-30.90Q89.84-32.27 91.40-32.27L91.40-32.27L115.85-32.27Q118.32-32.27 118.32-30.78L118.32-30.78Q118.32-29.69 108.32-26.29L108.32-26.29Q109.37-25.86 109.37-25.39L109.37-25.39Q109.37-24.80 108.82-24.38L108.82-24.38L119.84-24.38Q122.50-24.38 122.50-22.62L122.50-22.62Q122.50-21.80 118.28-18.65Q114.06-15.51 112.96-15.51L112.96-15.51Q111.32-15.51 111.32-16.91L111.32-16.91Q111.32-17.73 113.16-18.75L113.16-18.75Q116.75-20.90 116.75-21.21L116.75-21.21Q116.75-21.60 116.25-21.60L116.25-21.60L107.30-21.60L107.30-17.03Q107.53-14.34 105.00-13.40L105.00-13.40Q106.44-13.16 106.40-11.84L106.40-11.84L106.40-10.55L120.74-10.55Q122.53-10.55 122.53-9.06L122.53-9.06Q122.53-7.62 120.74-7.62L120.74-7.62L107.93-7.62Q112.96-3.36 121.44-1.48L121.44-1.48Q123.24-1.09 123.24 0.20L123.24 0.20Q123.24 1.95 121.56 1.95L121.56 1.95Q119.96 1.95 114.88-0.23Q109.80-2.42 106.40-5.66Z M139.08-25L138.33-14.84Q145.05-18.83 151.22-18.83L151.22-18.83Q162.63-18.83 162.63-9.96L162.63-9.96Q162.63-4.26 157.57-1.39Q152.51 1.48 142.36 1.48L142.36 1.48Q139.70 1.48 139.70-0.51L139.70-0.51Q139.70-2.23 141.77-2.23L141.77-2.23L144.78-2.19Q151.22-2.19 154.93-4.28Q158.65-6.37 158.65-10L158.65-10Q158.65-15.47 151.50-15.47L151.50-15.47Q144.43-15.47 137.94-10.16L137.94-10.16Q137.04-9.41 136.30-9.41L136.30-9.41Q134.35-9.41 134.47-11.09L134.47-11.09L135.33-24.34Q135.48-26.48 137.16-26.48L137.16-26.48Q139.19-26.48 139.08-25L139.08-25ZM142.67-28.87L142.67-28.87L140.68-28.87Q138.33-28.87 138.33-30.47L138.33-30.47Q138.33-32.38 141.15-32.38L141.15-32.38Q148.53-32.38 154.15-31.21L154.15-31.21Q157.04-30.63 157.04-29.14L157.04-29.14Q157.04-27.27 155.09-27.27L155.09-27.27L153.84-27.42Q148.37-28.59 142.67-28.87Z M187.18-22.11L183.58-21.95Q181.98-15.55 179.89-9.80Q177.80-4.06 176.32-1.33L176.32-1.33Q175.58 0.04 174.52 0.04L174.52 0.04Q172.80 0.04 172.80-1.68L172.80-1.68Q172.80-2.27 173.47-3.48L173.47-3.48Q175.03-6.21 177.04-11.74Q179.05-17.27 180.11-21.60L180.11-21.60L173.74-20.66Q172.14-20.66 172.14-22.34L172.14-22.34Q172.14-23.87 174.56-24.18L174.56-24.18L180.93-25L180.97-25.12L182.18-31.13Q182.53-32.89 183.90-32.89L183.90-32.89Q185.54-32.89 185.54-31.33L185.54-31.33Q185.54-30.31 184.40-25.31L184.40-25.31L187.30-25.43Q192.10-25.43 193.86-23.13Q195.62-20.82 195.62-15.70L195.62-15.70Q195.62-7.66 193.55-2.99Q191.48 1.68 187.65 1.68L187.65 1.68Q185.26 1.68 183.04 0.12Q180.81-1.45 180.81-2.62L180.81-2.62Q180.81-4.41 182.49-4.41L182.49-4.41Q183.12-4.41 184.17-3.52L184.17-3.52Q186.01-2.03 187.49-2.03L187.49-2.03Q188.94-2.03 190.01-3.83Q191.08-5.63 191.61-8.65Q192.14-11.68 192.14-16.09L192.14-16.09Q192.14-19.96 190.81-21.09L190.81-21.09Q189.68-22.11 187.18-22.11L187.18-22.11ZM199.13-27.42L199.13-27.42Q200.97-27.42 204.09-19.90Q207.22-12.38 207.22-9.53L207.22-9.53Q207.22-7.50 205.26-7.50L205.26-7.50Q203.90-7.50 203.43-9.61L203.43-9.61Q201.59-17.58 199.21-21.95L199.21-21.95Q197.41-25.27 197.41-25.90L197.41-25.90Q197.41-27.42 199.13-27.42Z M221.30-31.37L221.30-31.37Q222.98-31.37 222.98-29.80L222.98-29.80Q222.98-29.02 222.66-27.73L222.66-27.73Q221.41-22.66 221.41-14.38L221.41-14.38Q221.41-7.93 222.39-1.60L222.39-1.60L222.47-0.70Q222.47 1.05 220.67 1.05L220.67 1.05Q219.23 1.05 218.76-0.51L218.76-0.51Q218.45-1.64 218.04-6.07Q217.63-10.51 217.63-13.48L217.63-13.48Q217.63-21.76 219.03-28.63L219.03-28.63Q219.58-31.37 221.30-31.37ZM244.97-24.26L241.49-24.41Q235.40-24.41 230.40-23.28L230.40-23.28L229.34-23.13Q227.94-23.13 227.94-24.65L227.94-24.65Q227.94-26.37 230.79-26.88L230.79-26.88Q237.39-28.05 243.13-28.05L243.13-28.05Q247.12-28.05 247.12-26.17L247.12-26.17Q247.12-24.26 244.97-24.26L244.97-24.26ZM229.50-14.14L229.50-14.14Q231.06-14.14 231.06-12.73L231.06-12.73L230.87-11.72Q230.48-10.59 230.48-9.49L230.48-9.49Q230.48-5.12 240.63-5.12L240.63-5.12L243.17-5.16L246.30-5.39Q248.05-5.39 248.05-3.67L248.05-3.67Q248.05-2.34 246.75-1.91Q245.44-1.48 241.69-1.48L241.69-1.48Q236.18-1.48 233.17-2.17Q230.16-2.85 228.56-4.79Q226.96-6.72 226.96-9.73L226.96-9.73Q226.96-14.14 229.50-14.14Z"/></g>
</svg>
</g><g opacity="1" transform="rotate(0 212.5479 489.2676)">
<svg width="398.434" height="80" x="212.5479" y="489.2676" version="1.1" preserveAspectRatio="none" viewBox="1.8 -32.2 162.56 32.64">
  <g transform="matrix(1 0 0 1 0 0)" class="companyName"><path id="id-D6z1nYkh7" d="M26.32-23.08L26.32-23.08Q26.32-20.96 25.64-19.28Q24.96-17.60 23.50-16.44Q22.04-15.28 19.70-14.64Q17.36-14 14-14L14-14L10.40-14L10.40-6.28Q10.40-4.80 10.58-3.86Q10.76-2.92 11.34-2.40Q11.92-1.88 13.02-1.70Q14.12-1.52 15.92-1.52L15.92-1.52L15.92 0L1.80 0L1.80-1.52Q3.20-1.56 4.06-1.76Q4.92-1.96 5.40-2.44Q5.88-2.92 6.04-3.80Q6.20-4.68 6.20-6.08L6.20-6.08L6.20-24.72Q6.20-26.12 6.06-26.98Q5.92-27.84 5.50-28.34Q5.08-28.84 4.28-29.02Q3.48-29.20 2.20-29.28L2.20-29.28L2.20-30.80L14.76-30.80Q20.28-30.80 23.30-28.76Q26.32-26.72 26.32-23.08ZM10.40-28.24L10.40-16L13.24-16Q17.24-16 19.18-17.54Q21.12-19.08 21.12-22.60L21.12-22.60Q21.12-26 19.58-27.46Q18.04-28.92 14.76-28.92L14.76-28.92L11.08-28.92Q10.40-28.92 10.40-28.24L10.40-28.24Z M36.60-21.60L36.60-6.36Q36.60-4.80 36.74-3.86Q36.88-2.92 37.28-2.38Q37.68-1.84 38.40-1.64Q39.12-1.44 40.32-1.40L40.32-1.40L40.32 0L28.84 0L28.84-1.40Q30.04-1.44 30.80-1.66Q31.56-1.88 31.98-2.38Q32.40-2.88 32.54-3.78Q32.68-4.68 32.68-6.08L32.68-6.08L32.68-11.20Q32.68-13.52 32.62-15.02Q32.56-16.52 32.40-17.08L32.40-17.08Q32.20-18 31.48-18.34Q30.76-18.68 28.76-18.68L28.76-18.68L28.76-20.08L36.60-21.60ZM32-29.72L32-29.72Q32-30.76 32.72-31.48Q33.44-32.20 34.48-32.20L34.48-32.20Q35.52-32.20 36.24-31.48Q36.96-30.76 36.96-29.72L36.96-29.72Q36.96-28.68 36.24-27.96Q35.52-27.24 34.48-27.24L34.48-27.24Q33.44-27.24 32.72-27.96Q32-28.68 32-29.72Z M60.16-4.48L61.36-3.32Q59.92-1.56 57.64-0.58Q55.36 0.40 52.72 0.40L52.72 0.40Q50.60 0.40 48.82-0.38Q47.04-1.16 45.76-2.58Q44.48-4 43.78-6Q43.08-8 43.08-10.44L43.08-10.44Q43.08-13 43.88-15.06Q44.68-17.12 46.14-18.58Q47.60-20.04 49.66-20.82Q51.72-21.60 54.20-21.60L54.20-21.60Q55.76-21.60 57.04-21.34Q58.32-21.08 59.26-20.62Q60.20-20.16 60.72-19.50Q61.24-18.84 61.24-18.08L61.24-18.08Q61.24-17.28 60.72-16.84Q60.20-16.40 59.28-16.40L59.28-16.40Q58.56-16.40 58.08-16.70Q57.60-17 56.84-18.04L56.84-18.04Q56.04-18.96 55.30-19.34Q54.56-19.72 53.40-19.72L53.40-19.72Q50.56-19.72 49.10-17.52Q47.64-15.32 47.64-11.04L47.64-11.04Q47.64-6.44 49.26-4.06Q50.88-1.68 54.00-1.68L54.00-1.68Q55.68-1.68 57.16-2.34Q58.64-3 60.16-4.48L60.16-4.48Z M90.20-30.80L90.60-23.16L88.96-23.16Q88.84-24.88 88.40-26.04Q87.96-27.20 87.14-27.86Q86.32-28.52 85.08-28.80Q83.84-29.08 82.12-29.08L82.12-29.08Q80.64-29.08 79.74-29.02Q78.84-28.96 78.36-28.80Q77.88-28.64 77.74-28.42Q77.60-28.20 77.60-27.84L77.60-27.84L77.60-6.44Q77.60-5.16 77.78-4.24Q77.96-3.32 78.50-2.74Q79.04-2.16 80.06-1.86Q81.08-1.56 82.76-1.52L82.76-1.52L82.76 0L67.64 0L67.64-1.52Q69.32-1.56 70.36-1.86Q71.40-2.16 71.94-2.74Q72.48-3.32 72.66-4.24Q72.84-5.16 72.84-6.44L72.84-6.44L72.84-27.84Q72.84-28.20 72.70-28.42Q72.56-28.64 72.14-28.80Q71.72-28.96 70.96-29.02Q70.20-29.08 68.92-29.08L68.92-29.08Q67.36-29.08 66.02-28.96Q64.68-28.84 63.70-28.26Q62.72-27.68 62.12-26.48Q61.52-25.28 61.48-23.16L61.48-23.16L60.00-23.16L60.00-30.80L90.20-30.80Z M107.48-10.88L107.48-14.80Q107.48-16.44 107.40-17.38Q107.32-18.32 106.98-18.82Q106.64-19.32 105.98-19.50Q105.32-19.68 104.16-19.80L104.16-19.80L104.16-21.20L111.40-21.20L111.40-8.92Q111.40-6.64 111.46-5.20Q111.52-3.76 111.64-3.04L111.64-3.04Q111.72-2.52 111.90-2.22Q112.08-1.92 112.44-1.74Q112.80-1.56 113.38-1.50Q113.96-1.44 114.88-1.44L114.88-1.44L114.88-0.04L108.28 0.44L107.84-4.36L107.68-4.36Q106.16-1.88 104.18-0.74Q102.20 0.40 100.04 0.40L100.04 0.40Q98.36 0.40 96.78-0.24Q95.20-0.88 94.40-1.96L94.40-1.96Q93.72-2.84 93.42-4.40Q93.12-5.96 93.12-8.44L93.12-8.44L93.12-14.80Q93.12-16.44 93.04-17.38Q92.96-18.32 92.62-18.82Q92.28-19.32 91.62-19.50Q90.96-19.68 89.80-19.80L89.80-19.80L89.80-21.20L97.04-21.20L97.04-10.28Q97.04-5.92 98.06-3.96Q99.08-2 101.32-2L101.32-2Q104.84-2 106.80-6.60L106.80-6.60Q107-7.08 107.12-7.48Q107.24-7.88 107.32-8.36Q107.40-8.84 107.44-9.44Q107.48-10.04 107.48-10.88L107.48-10.88Z M124.40-11.64L124.40-6.28Q124.40-4.64 124.48-3.70Q124.56-2.76 124.90-2.26Q125.24-1.76 125.90-1.60Q126.56-1.44 127.72-1.36L127.72-1.36L127.72 0L117.24 0L117.24-1.36Q118.36-1.44 119.02-1.60Q119.68-1.76 120.04-2.24Q120.40-2.72 120.50-3.60Q120.60-4.48 120.60-6L120.60-6L120.60-11.32Q120.60-16.08 120.36-17.12L120.36-17.12Q120.24-17.64 120.06-17.98Q119.88-18.32 119.52-18.50Q119.16-18.68 118.60-18.74Q118.04-18.80 117.16-18.80L117.16-18.80L117.16-20.08L123.56-21.60L124.04-17.64L124.20-17.64Q125.72-19.52 127.76-20.56Q129.80-21.60 132.20-21.60L132.20-21.60Q134.04-21.60 135.56-21Q137.08-20.40 137.88-19.36L137.88-19.36Q138.56-18.44 138.84-16.98Q139.12-15.52 139.12-12.96L139.12-12.96L139.12-6.28Q139.12-4.64 139.22-3.70Q139.32-2.76 139.64-2.26Q139.96-1.76 140.62-1.60Q141.28-1.44 142.36-1.36L142.36-1.36L142.36 0L132 0L132-1.36Q133.12-1.40 133.78-1.58Q134.44-1.76 134.78-2.24Q135.12-2.72 135.22-3.62Q135.32-4.52 135.32-6L135.32-6L135.32-11.28Q135.32-13.56 135.08-15.12Q134.84-16.68 134.30-17.64Q133.76-18.60 132.88-19.02Q132-19.44 130.76-19.44L130.76-19.44Q128.96-19.44 127.46-18.50Q125.96-17.56 125.12-15.92L125.12-15.92Q124.92-15.52 124.78-15.16Q124.64-14.80 124.56-14.32Q124.48-13.84 124.44-13.22Q124.40-12.60 124.40-11.64L124.40-11.64Z M162.96-4.84L164.20-3.72Q160.80 0.40 155.76 0.40L155.76 0.40Q153.40 0.40 151.48-0.38Q149.56-1.16 148.18-2.58Q146.80-4 146.04-5.98Q145.28-7.96 145.28-10.36L145.28-10.36Q145.28-12.80 146.08-14.88Q146.88-16.96 148.34-18.44Q149.80-19.92 151.82-20.76Q153.84-21.60 156.24-21.60L156.24-21.60Q160.12-21.60 162.24-19.50Q164.36-17.40 164.36-13.48L164.36-13.48Q164.36-12.92 164.14-12.80Q163.92-12.68 163.12-12.68L163.12-12.68L149.96-12.68Q149.88-12.36 149.84-11.90Q149.80-11.44 149.80-10.88L149.80-10.88Q149.80-8.80 150.30-7.10Q150.80-5.40 151.74-4.20Q152.68-3 153.98-2.34Q155.28-1.68 156.88-1.68L156.88-1.68Q158.56-1.68 160-2.42Q161.44-3.16 162.96-4.84L162.96-4.84ZM150.24-14.52L157.60-14.52Q158.40-14.52 158.88-14.56Q159.36-14.60 159.60-14.72Q159.84-14.84 159.92-15.06Q160-15.28 160-15.64L160-15.64Q160-17.48 158.82-18.58Q157.64-19.68 155.60-19.68L155.60-19.68Q151.28-19.68 150.24-14.52L150.24-14.52Z"/></g>
</svg>
</g><g opacity="1" transform="rotate(0 332.0781 263.7357)">
<svg width="159.3736" height="185.5319" x="332.0781" y="263.7357" version="1.1" preserveAspectRatio="none" viewBox="35.76499557495117 32.599998474121094 119.92799377441406 139.61199951171875">
  <g transform="matrix(1 0 0 1 0 0)"><g><path data-color="1" d="M35.765 69.678v68.661l60.422 33.873v-22.887l-40.282-22.887-.458-44.859-19.682-11.901z" class="icon1"></path><path data-color="2" d="M115.869 45.875L96.187 32.6 35.765 69.678l19.682 11.901 60.422-35.704z" class="icon2"></path><path data-color="3" d="M96.187 149.325l59.506-35.246v24.26l-59.506 33.873v-22.887z" class="icon3"></path><path data-color="1" d="M115.869 57.09l30.669 18.08-40.281 56.761-30.44-17.852 40.052-56.989z" class="icon1"></path><path data-color="3" d="M146.538 108.128l-40.281 23.803 40.281-56.761v32.958z" class="icon3"></path><path data-color="2" d="M55.905 126.438l19.912-12.359 30.44 17.852 40.281-23.803 9.155 5.951-59.506 35.246-40.282-22.887z" class="icon2"></path><path data-color="3" d="M115.869 45.875V57.09l-40.052 56.989-19.912 12.359-.458-44.859 60.422-35.704z" class="icon3"></path></g></g>
</svg>
</g></svg></svg>