<?xml version="1.0"?>
<svg width="500" height="500" xmlns="http://www.w3.org/2000/svg" xmlns:svg="http://www.w3.org/2000/svg" preserveAspectRatio="none" version="1.1">
 <g class="layer">
  <title>Layer 1</title>
  <svg fill="none" height="305.4" id="svg_24" preserveAspectRatio="none" stroke="#7f7272" transform="rotate(76.3546 326.801 487.034)" viewBox="135.7078 325.0331 364.186 334.0027" width="333" x="83.5px" xmlns="http://www.w3.org/2000/svg" xmlns:xlink="http://www.w3.org/1999/xlink" y="97.3px">

   <style fill="#ffaaaa" stroke="#7f7272">.companyName {fill:#F7BFB2;fill-opacity:1;}.icon1 {fill:#FDC8BC;fill-opacity:1;}.icon2 {fill:#D2BB7A;fill-opacity:1;}.icon3 {fill:#8F8F8F;fill-opacity:1;}.icon3-str {stroke:#8F8F8F;stroke-opacity:1;}.text {fill:#777777;fill-opacity:1;}</style>
   <g id="svg_29">
    <svg fill="#ffaaaa" height="80" id="svg_30" preserveAspectRatio="none" stroke="#7f7272" version="1.1" viewBox="4 -29.12 135.84 29.84" width="364.19" x="135.71" y="531.44">
     <g class="companyName" id="svg_31" transform="matrix(1 0 0 1 0 0)">
      <path d="m12.24,-29.12q4.96,0 7.76,2.48q2.8,2.48 2.8,6.88l0,0q0,2.52 -1,4.7q-1,2.18 -3.22,3.56q-2.22,1.38 -5.7,1.38l0,0l-4.2,0l0,10.12l-4.68,0l0,-29.12l8.24,0zm0.64,14.52q1.92,0 3.1,-0.82q1.18,-0.82 1.68,-2q0.5,-1.18 0.5,-2.26l0,0q0,-1.84 -1.18,-3.4q-1.18,-1.56 -3.98,-1.56l0,0l-4.32,0l0,10.04l4.2,0zm14.64,-2.32l4.48,0l0,16.92l-4.48,0l0,-16.92zm-0.2,-6.04q0,-1 0.8,-1.7q0.8,-0.7 1.8,-0.7l0,0q0.96,0 1.74,0.7q0.78,0.7 0.78,1.7l0,0q0,1 -0.78,1.68q-0.78,0.68 -1.74,0.68l0,0q-1,0 -1.8,-0.68q-0.8,-0.68 -0.8,-1.68l0,0zm24.84,21.4q-1.12,0.92 -2.74,1.46q-1.62,0.54 -3.26,0.54l0,0q-2.8,0 -4.94,-1.08q-2.14,-1.08 -3.3,-3.1q-1.16,-2.02 -1.16,-4.74l0,0q0,-2.68 1.24,-4.7q1.24,-2.02 3.3,-3.1q2.06,-1.08 4.42,-1.08l0,0q4,0 6.6,2.16l0,0l-2.24,2.92q-0.76,-0.6 -1.78,-1.02q-1.02,-0.42 -2.18,-0.42l0,0q-2.04,0 -3.46,1.5q-1.42,1.5 -1.42,3.74l0,0q0,2.24 1.5,3.74q1.5,1.5 3.82,1.5l0,0q2,0 3.36,-1.12l0,0l2.24,2.8zm3.44,-27.56l19.48,0l0,4.48l-7.52,0l0,24.64l-4.64,0l0,-24.64l-7.32,0l0,-4.48zm33.88,12.2l4.48,0l0,16.92l-4.04,0l-0.28,-3.04q-0.88,1.72 -2.6,2.74q-1.72,1.02 -3.92,1.02l0,0q-2.32,0 -3.86,-1.42q-1.54,-1.42 -1.58,-3.66l0,0l0,-12.56l4.48,0l0,10.96q0.12,2.8 2.76,2.84l0,0q1.96,0 3.26,-1.8q1.3,-1.8 1.3,-4.52l0,0l0,-7.48zm21.72,-0.72q2.36,0 3.94,1.42q1.58,1.42 1.62,3.66l0,0l0,12.56l-4.48,0l0,-10.96q-0.08,-1.32 -0.78,-2.08q-0.7,-0.76 -2.1,-0.8l0,0q-2.08,0 -3.42,1.78q-1.34,1.78 -1.34,4.54l0,0l0,7.52l-4.48,0l0,-16.92l4.04,0l0.32,3q0.92,-1.76 2.66,-2.74q1.74,-0.98 4.02,-0.98l0,0zm19.88,14.24q1.88,0 3.8,-1.32l0,0l2.04,3.32q-1.36,0.84 -2.92,1.34q-1.56,0.5 -3,0.5l0,0q-2.92,0 -5.06,-1.16q-2.14,-1.16 -3.28,-3.2q-1.14,-2.04 -1.14,-4.68l0,0q0,-2.48 1.28,-4.56q1.28,-2.08 3.48,-3.3q2.2,-1.22 4.8,-1.22l0,0q3.44,0 5.72,2.02q2.28,2.02 3.04,5.7l0,0l-13.04,4.4q0.68,1.04 1.8,1.6q1.12,0.56 2.48,0.56l0,0zm-0.36,-10.76q-2.12,0 -3.46,1.48q-1.34,1.48 -1.34,3.84l0,0q0,0.44 0.04,0.68l0,0l8.88,-3.16q-0.52,-1.24 -1.52,-2.04q-1,-0.8 -2.6,-0.8l0,0z" fill="#ffaaaa" id="svg_32" stroke="#7f7272"/>
     </g>
    </svg>
   </g>
   <g id="svg_33" transform="matrix(1 0 0 1 0 0)">
    <svg fill="#ffaaaa" height="176.4" id="svg_34" preserveAspectRatio="none" stroke="#7f7272" version="1.1" viewBox="20 22.5 160 155" width="182.09" x="226.75" y="325.03">
     <g id="svg_35" transform="matrix(1 0 0 1 0 0)">
      <g id="svg_36">
       <path class="icon1" d="m91.9,177.5l-71.9,-41.4l0,-61.5l71.9,41.4l0,61.5z" data-color="1" fill="#ffaaaa" id="svg_37" stroke="#7f7272"/>
       <path class="icon2" d="m91.9,177.5l0,-61.5l88.1,-50.9l0,60.9l-88.1,50.9" data-color="2" fill="#ffaaaa" id="svg_38" stroke="#7f7272"/>
       <path class="icon1" d="m20,74.6l89.6,-52.1l70.4,42.6l-88.1,50.9l-71.9,-41.4z" data-color="1" fill="#ffaaaa" id="svg_39" stroke="#7f7272"/>
       <path class="icon3" d="m44.4,75.3l44.8,26.4l66,-39.4l-44,-25.6l-66.8,38.6z" data-color="3" fill="#ffaaaa" id="svg_40" stroke="#7f7272"/>
       <path class="icon2" d="m111.2,36.7l0,51.9l44,-26.3l-44,-25.6z" data-color="2" fill="#ffaaaa" id="svg_41" stroke="#7f7272"/>
      </g>
     </g>
    </svg>
   </g>
  </svg>
 </g>
</svg>